<?xml version="1.0" encoding="iso-8859-1"?>
<!-- Generator: Adobe Illustrator 19.0.0, SVG Export Plug-In . SVG Version: 6.00 Build 0)  -->
<svg version="1.1" id="Layer_1" xmlns="http://www.w3.org/2000/svg" xmlns:xlink="http://www.w3.org/1999/xlink" x="0px" y="0px"
	 viewBox="0 0 512 512" style="enable-background:new 0 0 512 512;" xml:space="preserve">
<g>
	<path style="fill:#A98258;" d="M229.517,105.931h-52.966v-8.775c0-4.899-3.981-8.881-8.881-8.881h-52.86
		c-4.899,0-8.881,3.981-8.881,8.881v8.775H52.966c-9.754,0-17.655,7.901-17.655,17.655v229.517h211.862V123.587
		C247.172,113.832,239.272,105.931,229.517,105.931"/>
	<path style="fill:#556080;" d="M476.69,423.725H35.31c-19.5,0-35.31-15.81-35.31-35.31c0-19.5,15.81-35.31,35.31-35.31H476.69
		c19.5,0,35.31,15.81,35.31,35.31C512,407.914,496.19,423.725,476.69,423.725"/>
	<g>
		<path style="fill:#738CBF;" d="M52.966,388.414c0-4.873-3.955-8.828-8.828-8.828s-8.828,3.955-8.828,8.828
			c0,4.873,3.955,8.828,8.828,8.828S52.966,393.287,52.966,388.414"/>
		<path style="fill:#738CBF;" d="M88.276,388.414c0-4.873-3.955-8.828-8.828-8.828c-4.873,0-8.828,3.955-8.828,8.828
			c0,4.873,3.955,8.828,8.828,8.828C84.321,397.242,88.276,393.287,88.276,388.414"/>
		<path style="fill:#738CBF;" d="M123.586,388.414c0-4.873-3.955-8.828-8.828-8.828s-8.828,3.955-8.828,8.828
			c0,4.873,3.955,8.828,8.828,8.828S123.586,393.287,123.586,388.414"/>
		<path style="fill:#738CBF;" d="M158.897,388.414c0-4.873-3.955-8.828-8.828-8.828c-4.873,0-8.828,3.955-8.828,8.828
			c0,4.873,3.955,8.828,8.828,8.828C154.942,397.242,158.897,393.287,158.897,388.414"/>
		<path style="fill:#738CBF;" d="M194.207,388.414c0-4.873-3.955-8.828-8.828-8.828c-4.873,0-8.828,3.955-8.828,8.828
			c0,4.873,3.955,8.828,8.828,8.828C190.252,397.242,194.207,393.287,194.207,388.414"/>
		<path style="fill:#738CBF;" d="M229.517,388.414c0-4.873-3.955-8.828-8.828-8.828c-4.873,0-8.828,3.955-8.828,8.828
			c0,4.873,3.955,8.828,8.828,8.828C225.562,397.242,229.517,393.287,229.517,388.414"/>
		<path style="fill:#738CBF;" d="M264.828,388.414c0-4.873-3.955-8.828-8.828-8.828s-8.828,3.955-8.828,8.828
			c0,4.873,3.955,8.828,8.828,8.828S264.828,393.287,264.828,388.414"/>
		<path style="fill:#738CBF;" d="M300.138,388.414c0-4.873-3.955-8.828-8.828-8.828c-4.873,0-8.828,3.955-8.828,8.828
			c0,4.873,3.955,8.828,8.828,8.828C296.183,397.242,300.138,393.287,300.138,388.414"/>
		<path style="fill:#738CBF;" d="M335.448,388.414c0-4.873-3.955-8.828-8.828-8.828c-4.873,0-8.828,3.955-8.828,8.828
			c0,4.873,3.955,8.828,8.828,8.828C331.493,397.242,335.448,393.287,335.448,388.414"/>
		<path style="fill:#738CBF;" d="M370.759,388.414c0-4.873-3.955-8.828-8.828-8.828s-8.828,3.955-8.828,8.828
			c0,4.873,3.955,8.828,8.828,8.828S370.759,393.287,370.759,388.414"/>
		<path style="fill:#738CBF;" d="M406.069,388.414c0-4.873-3.955-8.828-8.828-8.828c-4.873,0-8.828,3.955-8.828,8.828
			c0,4.873,3.955,8.828,8.828,8.828C402.114,397.242,406.069,393.287,406.069,388.414"/>
		<path style="fill:#738CBF;" d="M441.379,388.414c0-4.873-3.955-8.828-8.828-8.828s-8.828,3.955-8.828,8.828
			c0,4.873,3.955,8.828,8.828,8.828S441.379,393.287,441.379,388.414"/>
		<path style="fill:#738CBF;" d="M476.69,388.414c0-4.873-3.955-8.828-8.828-8.828s-8.828,3.955-8.828,8.828
			c0,4.873,3.955,8.828,8.828,8.828S476.69,393.287,476.69,388.414"/>
	</g>
	<path style="fill:#E8D5B2;" d="M165.914,183.543l-24.673-24.673l-24.673,24.673c-3.928,3.928-10.637,1.148-10.637-4.405V97.156
		c0-4.899,3.981-8.881,8.881-8.881h52.86c4.899,0,8.881,3.981,8.881,8.881v81.982C176.552,184.69,169.843,187.471,165.914,183.543"
		/>
	<g>
		<path style="fill:#BDC3C7;" d="M476.69,229.518H308.966c-4.882,0-8.828-3.955-8.828-8.828s3.946-8.828,8.828-8.828H476.69
			c4.882,0,8.828,3.955,8.828,8.828S481.571,229.518,476.69,229.518"/>
		<path style="fill:#BDC3C7;" d="M423.733,273.656c-2.534,0-5.041-1.086-6.797-3.178c-3.116-3.743-2.604-9.313,1.13-12.429
			l44.835-37.358l-44.835-37.358c-3.734-3.116-4.246-8.686-1.13-12.429c3.125-3.734,8.678-4.264,12.447-1.13l52.966,44.138
			c2.004,1.677,3.169,4.158,3.169,6.78s-1.165,5.102-3.169,6.78l-52.966,44.138C427.723,272.985,425.728,273.656,423.733,273.656"/>
	</g>
	<g>
		<path style="fill:#E8D5B2;" d="M97.103,291.311c-4.882,0-8.828-3.955-8.828-8.828V220.69c0-4.873,3.946-8.828,8.828-8.828
			s8.828,3.955,8.828,8.828v61.793C105.931,287.356,101.985,291.311,97.103,291.311"/>
		<path style="fill:#E8D5B2;" d="M123.586,256c-2.26,0-4.52-0.865-6.241-2.586l-20.242-20.242l-20.242,20.242
			c-3.452,3.452-9.031,3.452-12.482,0c-3.452-3.452-3.452-9.031,0-12.482l26.483-26.483c3.452-3.452,9.031-3.452,12.482,0
			l26.483,26.483c3.452,3.452,3.452,9.031,0,12.482C128.106,255.135,125.846,256,123.586,256"/>
		<path style="fill:#E8D5B2;" d="M185.379,291.311c-4.882,0-8.828-3.955-8.828-8.828V220.69c0-4.873,3.946-8.828,8.828-8.828
			c4.882,0,8.828,3.955,8.828,8.828v61.793C194.207,287.356,190.261,291.311,185.379,291.311"/>
		<path style="fill:#E8D5B2;" d="M211.862,256c-2.26,0-4.52-0.865-6.241-2.586l-20.242-20.242l-20.242,20.242
			c-3.452,3.452-9.031,3.452-12.482,0c-3.452-3.452-3.452-9.031,0-12.482l26.483-26.483c3.452-3.452,9.031-3.452,12.482,0
			l26.483,26.483c3.452,3.452,3.452,9.031,0,12.482C216.382,255.135,214.122,256,211.862,256"/>
		<path style="fill:#E8D5B2;" d="M211.862,326.621H70.621c-4.882,0-8.828-3.955-8.828-8.828s3.946-8.828,8.828-8.828h141.241
			c4.882,0,8.828,3.955,8.828,8.828S216.744,326.621,211.862,326.621"/>
	</g>
</g>
<g>
</g>
<g>
</g>
<g>
</g>
<g>
</g>
<g>
</g>
<g>
</g>
<g>
</g>
<g>
</g>
<g>
</g>
<g>
</g>
<g>
</g>
<g>
</g>
<g>
</g>
<g>
</g>
<g>
</g>
</svg>
