<?xml version="1.0" encoding="iso-8859-1"?>
<!-- Generator: Adobe Illustrator 19.0.0, SVG Export Plug-In . SVG Version: 6.00 Build 0)  -->
<svg version="1.1" id="Layer_1" xmlns="http://www.w3.org/2000/svg" xmlns:xlink="http://www.w3.org/1999/xlink" x="0px" y="0px"
	 viewBox="0 0 511.985 511.985" style="enable-background:new 0 0 511.985 511.985;" xml:space="preserve">
<path style="fill:#35BB9B;" d="M458.646,0H256.004H53.338l32.249,79.333l170.417-1.93l170.394,1.93L458.646,0L458.646,0z"/>
<g>
	<path style="fill:#46CEAD;" d="M149.335,10.672c5.891,0,10.672-4.781,10.672-10.671h-21.344
		C138.663,5.89,143.444,10.672,149.335,10.672z"/>
	<path style="fill:#46CEAD;" d="M192.006,10.672c5.874,0,10.655-4.781,10.655-10.671h-21.327
		C181.334,5.89,186.099,10.672,192.006,10.672z"/>
	<path style="fill:#46CEAD;" d="M106.664,10.672c5.891,0,10.672-4.781,10.672-10.671H96.008
		C96.008,5.89,100.773,10.672,106.664,10.672z"/>
	<path style="fill:#46CEAD;" d="M234.661,10.672c5.89,0,10.671-4.781,10.671-10.671h-21.327
		C224.005,5.89,228.77,10.672,234.661,10.672z"/>
	<path style="fill:#46CEAD;" d="M277.34,10.672c5.874,0,10.655-4.781,10.655-10.671H266.66
		C266.66,5.89,271.441,10.672,277.34,10.672z"/>
	<path style="fill:#46CEAD;" d="M319.994,10.672c5.875,0,10.656-4.781,10.656-10.671h-21.312
		C309.338,5.89,314.088,10.672,319.994,10.672z"/>
	<path style="fill:#46CEAD;" d="M362.649,10.672c5.906,0,10.688-4.781,10.688-10.671h-21.343
		C351.994,5.89,356.775,10.672,362.649,10.672z"/>
	<path style="fill:#46CEAD;" d="M405.335,10.672c5.875,0,10.656-4.781,10.656-10.671h-21.344
		C394.647,5.89,399.429,10.672,405.335,10.672z"/>
</g>
<path style="fill:#35BB9B;" d="M53.338,511.985h202.666h202.643l-32.249-79.326l-170.394,1.922l-170.417-1.922L53.338,511.985
	L53.338,511.985z"/>
<g>
	<path style="fill:#46CEAD;" d="M362.649,501.331c-5.874,0-10.655,4.766-10.655,10.654h21.343
		C373.337,506.097,368.555,501.331,362.649,501.331z"/>
	<path style="fill:#46CEAD;" d="M319.994,501.331c-5.906,0-10.656,4.766-10.656,10.654h21.312
		C330.65,506.097,325.869,501.331,319.994,501.331z"/>
	<path style="fill:#46CEAD;" d="M405.335,501.331c-5.906,0-10.688,4.766-10.688,10.654h21.344
		C415.991,506.097,411.21,501.331,405.335,501.331z"/>
	<path style="fill:#46CEAD;" d="M277.34,501.331c-5.898,0-10.68,4.766-10.68,10.654h21.335
		C287.995,506.097,283.214,501.331,277.34,501.331z"/>
	<path style="fill:#46CEAD;" d="M234.661,501.331c-5.891,0-10.656,4.766-10.656,10.654h21.327
		C245.332,506.097,240.551,501.331,234.661,501.331z"/>
	<path style="fill:#46CEAD;" d="M192.006,501.331c-5.906,0-10.672,4.766-10.672,10.654h21.327
		C202.661,506.097,197.88,501.331,192.006,501.331z"/>
	<path style="fill:#46CEAD;" d="M149.335,501.331c-5.891,0-10.672,4.766-10.672,10.654h21.344
		C160.007,506.097,155.225,501.331,149.335,501.331z"/>
	<path style="fill:#46CEAD;" d="M106.664,501.331c-5.891,0-10.656,4.766-10.656,10.654h21.328
		C117.336,506.097,112.554,501.331,106.664,501.331z"/>
	<path style="fill:#46CEAD;" d="M437.335,53.335H256.004H74.665c0,0-21.327,74.662-21.327,202.658s21.327,202.666,21.327,202.666
		h181.339h181.331c0,0,21.312-74.67,21.312-202.666S437.335,53.335,437.335,53.335z"/>
</g>
<path style="fill:#E5E8EC;" d="M53.338,255.993c0,27.406,0.984,52.357,2.516,74.67h400.293c1.531-22.312,2.5-47.264,2.5-74.67
	s-0.969-52.358-2.5-74.662H55.853C54.322,203.635,53.338,228.587,53.338,255.993z"/>
<path style="fill:#F4F6F9;" d="M256.004,127.333c-70.951,0-128.668,57.717-128.668,128.66c0,70.936,57.717,128.668,128.668,128.668
	c70.928,0,128.645-57.732,128.645-128.668C384.648,185.05,326.931,127.333,256.004,127.333z"/>
<g>
	<path style="fill:#424953;" d="M319.65,223.993H192.334c-5.891,0-10.672,4.773-10.672,10.672c0,5.891,4.781,10.664,10.672,10.664
		H319.65c5.906,0,10.688-4.773,10.688-10.664C330.338,228.767,325.556,223.993,319.65,223.993z"/>
	<path style="fill:#424953;" d="M287.839,266.665h-63.678c-5.891,0-10.656,4.773-10.656,10.672c0,5.875,4.766,10.656,10.656,10.656
		h63.678c5.875,0,10.656-4.781,10.656-10.656C298.495,271.438,293.714,266.665,287.839,266.665z"/>
</g>
<g>
</g>
<g>
</g>
<g>
</g>
<g>
</g>
<g>
</g>
<g>
</g>
<g>
</g>
<g>
</g>
<g>
</g>
<g>
</g>
<g>
</g>
<g>
</g>
<g>
</g>
<g>
</g>
<g>
</g>
</svg>
